<svg id="a9508b1f-c50a-41d6-88ef-c4000270d4c8" data-name="1" xmlns="http://www.w3.org/2000/svg" width="150" height="527"><defs><style>.\35 201f5cb-d716-4299-8f0f-02e0291b41f0{fill:url(#7687b432-3851-4d2e-aa31-26a5efd5632b)}.dd5c5457-ef77-474c-958f-edfb7778012c,.eaeeb11a-e1b7-429a-97bc-df54faf7525b{fill:#f1f1f2}.c72c7e47-3f11-49d5-b237-697f37b82cc0{fill:#b70b00}.\35 245434f-446b-4ebf-8234-d782ea23224d{fill:url(#817ba0a6-12ee-4be3-8747-de89933f0640)}.dd5c5457-ef77-474c-958f-edfb7778012c{stroke:#fff;stroke-miterlimit:10}</style><linearGradient id="7687b432-3851-4d2e-aa31-26a5efd5632b" x1="19.8" y1="24.02" x2="33.77" y2="24.02" gradientTransform="matrix(1 0 0 -1 0 38)" gradientUnits="userSpaceOnUse"><stop offset="0" stop-color="#e6e7e8"/><stop offset=".34" stop-color="#e6e7e8"/><stop offset=".69" stop-color="#fff"/><stop offset="1" stop-color="#d0d2d3"/></linearGradient><linearGradient id="817ba0a6-12ee-4be3-8747-de89933f0640" y1="19.5" x2="36.93" y2="19.5" gradientTransform="matrix(1 0 0 -1 0 38)" gradientUnits="userSpaceOnUse"><stop offset="0" stop-color="#7c0100"/><stop offset=".34" stop-color="#a50b00"/><stop offset=".69" stop-color="#bd0b00"/><stop offset="1" stop-color="#a50b00"/></linearGradient></defs><path class="5201f5cb-d716-4299-8f0f-02e0291b41f0" d="M31.67 5.5c-.23-.22-.45-.45-.69-.66C25.54 0 17 .42 11.36 5.91c-.24.22-.46.46-.67.69A13.79 13.79 0 0 1 29 8.09a13.8 13.8 0 0 1 1.12 18.37c.24-.22.48-.43.71-.66 5.6-5.49 6.17-14.06 1.46-19.6-.2-.24-.42-.47-.64-.7z"/><path class="eaeeb11a-e1b7-429a-97bc-df54faf7525b" d="M82.68 20h-3.79l-1.51 8.49h-3.44l3.71-20.97h7.23c5 0 6.9 2.83 6.3 6.23-.52 2.99-3.04 6.25-8.5 6.25zm.49-2.68c2.67 0 4.12-1.42 4.48-3.53s-.57-3.55-3.25-3.55h-3.8l-1.23 7.08zM100.3 28.66c-5.36 0-8.92-3.64-8.92-8.82a12.17 12.17 0 0 1 12.45-12.59c5.42 0 8.94 3.64 8.94 8.79 0 7.29-5.27 12.62-12.47 12.62zm.48-3.1c5.06 0 8.44-4.28 8.44-9.28 0-3.64-2.17-5.9-5.88-5.9-5.06 0-8.4 4.22-8.4 9.25 0 3.64 2.17 5.93 5.84 5.93zM123.4 7.52c5 0 6.9 2.86 6.3 6.26a7.5 7.5 0 0 1-5.9 6l3.64 8.67h-4.1L120 20.08h-2.65l-1.48 8.37h-3.43l3.7-20.93zm-.48 2.68h-3.79l-1.27 7.17h3.8a4.15 4.15 0 0 0 4.51-3.59c.4-2.17-.57-3.58-3.25-3.58zM150 7.49l-3.7 21h-3.44l-7.56-15.67-2.77 15.63h-3.44l3.71-21h3.43l7.6 15.6 2.74-15.6z"/><path class="c72c7e47-3f11-49d5-b237-697f37b82cc0" d="M22.07 7.4c5.18 0 7.26 3 6.59 6.66a7.71 7.71 0 0 1-5.78 6.11l3.4 8.38h-5.81l-3-8h-1.22l-1.42 8H9.68L13.42 7.4zM21 11.61h-3.18l-.94 5.31h3.2a3 3 0 0 0 3.31-2.65c.3-1.6-.45-2.66-2.39-2.66zM53 11.46h-7.8l-.75 4.4h6.89l-.69 3.89h-6.9l-.84 4.73h7.8L50 28.54H37L40.74 7.4h12.95zM73 18c-1.14 6.24-6.24 10.55-13 10.55h-7.91L55.83 7.4h7.92C70.5 7.4 74.08 11.68 73 18zm-12.5 6.18A7 7 0 0 0 67.73 18c.69-3.89-1.18-6.17-5.07-6.17H60.2L58 24.15z"/><path class="5245434f-446b-4ebf-8234-d782ea23224d" d="M36.5 15.18A17.12 17.12 0 0 1 31.28 28a17.2 17.2 0 0 1-11.18 5 14.92 14.92 0 0 1-11.47-4.24 14.47 14.47 0 0 1-2.68-3.48 14.82 14.82 0 0 1-1.87-8.68A17.24 17.24 0 0 1 9.24 5.5a17.1 17.1 0 0 1 12.91-5A18 18 0 0 0 5.3 5.06c-7.16 7-7 18.7.22 26.13s19 7.76 26.12.75a18 18 0 0 0 4.86-16.76z"/><path class="eaeeb11a-e1b7-429a-97bc-df54faf7525b" d="M91 84.92L83.42 77a12.91 12.91 0 1 0-2.49 2.28l7.68 8A1.69 1.69 0 0 0 91 84.92zM73.53 59.14A9.55 9.55 0 1 1 64 68.69a9.56 9.56 0 0 1 9.53-9.55zM89.23 128.91l-12.76-9.34a.71.71 0 0 0-.83 0l-12.76 9.34a.7.7 0 0 0 .83 1.13l12.35-9 12.35 9a.7.7 0 0 0 .41.14.68.68 0 0 0 .56-.29.69.69 0 0 0-.15-.98z"/><path class="eaeeb11a-e1b7-429a-97bc-df54faf7525b" d="M85.85 130.2a.7.7 0 0 0-.7.7V142h-5.59v-6a3.5 3.5 0 0 0-7 0v6H67v-11.1a.7.7 0 1 0-1.4 0v11.83a.7.7 0 0 0 .7.7h7a.7.7 0 0 0 .7-.64V136a2.1 2.1 0 0 1 4.2 0v6.83a.7.7 0 0 0 .7.64h7a.7.7 0 0 0 .7-.7V130.9a.7.7 0 0 0-.75-.7zM82.39 227.57a.51.51 0 0 0-.48 0l-2.91 1.2v-.13a1.28 1.28 0 0 0-1.28-1.28h-4.9v-.31a1 1 0 0 1 1-1h.51v.25a.26.26 0 0 0 .26.26H78a.77.77 0 0 0 0-1.56h-3.38a.26.26 0 0 0-.26.26v.25h-.51a1.54 1.54 0 0 0-1.54 1.54v.31h-1.53a1.29 1.29 0 0 0-1.29 1.28v3.08a1.29 1.29 0 0 0 1.29 1.28h6.92a1.28 1.28 0 0 0 1.3-1.28v-.13l2.93 1.24a.65.65 0 0 0 .2 0 .47.47 0 0 0 .28-.09.49.49 0 0 0 .23-.43V228a.51.51 0 0 0-.25-.43zm-7.52-2.06H78a.26.26 0 0 1 0 .52h-3.13zm3.6 6.21a.78.78 0 0 1-.77.77h-6.92a.77.77 0 0 1-.77-.77v-3.08a.77.77 0 0 1 .77-.77h6.92a.78.78 0 0 1 .77.77zm3.64.63L79 231v-1.71l3.11-1.29v4.36z"/><path class="eaeeb11a-e1b7-429a-97bc-df54faf7525b" d="M74.1 231.58h-3a.26.26 0 0 1 0-.52h3a.26.26 0 0 1 0 .52zM75.13 231.58a.26.26 0 0 1 0-.52.26.26 0 0 1 0 .52zM71.54 230.33a.77.77 0 0 1 0-1.54.77.77 0 0 1 0 1.54zm0-1a.25.25 0 0 0-.25.25.26.26 0 1 0 .51 0 .25.25 0 0 0-.26-.27zM73.6 230.33a.77.77 0 1 1 .77-.77.77.77 0 0 1-.77.77zm0-1a.26.26 0 1 0 0 .51.26.26 0 0 0 0-.51z"/><g id="12455211-a148-4f23-a0c8-a3c409da871a" data-name="Artwork"><path class="eaeeb11a-e1b7-429a-97bc-df54faf7525b" d="M80.6 256.11a.45.45 0 0 0-.43-.43h-1.06a.28.28 0 1 0 0 .56h.51v.07l-.79.79c-.05.06-.08 0-.1 0a2.46 2.46 0 0 0-1-.49.08.08 0 0 1 0-.08A2.73 2.73 0 0 0 73 254.8a2.73 2.73 0 0 0-.24 3.59v.07l-.24.24h-.07l-.36-.36a.32.32 0 0 0-.46 0 .33.33 0 0 0 0 .45l.36.36v.08l-.31.31a.32.32 0 0 0 .22.54.33.33 0 0 0 .23-.09l.32-.32h.07l.36.36a.28.28 0 0 0 .22.1.3.3 0 0 0 .23-.1.33.33 0 0 0 0-.45l-.36-.36v-.07l.26-.25h.08a2.7 2.7 0 0 0 1 .47s.06 0 .06.08a2.58 2.58 0 0 0 .79 1.74 2.73 2.73 0 0 0 4.08-3.62v-.08l.83-.83v.53a.28.28 0 0 0 .28.27.28.28 0 0 0 .28-.29zm-6.31 2.7a2 2 0 0 1-.92-.55 2.16 2.16 0 1 1 3.06-3.06 2 2 0 0 1 .62 1.29v.05a2.7 2.7 0 0 0-1.93.8 2.73 2.73 0 0 0-.76 1.45s-.05.03-.07.02zm2.71-1.65a2 2 0 0 1-.59 1.1 2.15 2.15 0 0 1-1.53.64 2 2 0 0 1 .59-1.12 2.15 2.15 0 0 1 1.53-.68v.06zm2.16 2.11a2.15 2.15 0 0 1-.64 1.53 2.17 2.17 0 0 1-3.06 0 2 2 0 0 1-.62-1.28v-.06a2.7 2.7 0 0 0 1.91-.8 2.66 2.66 0 0 0 .76-1.45 2.06 2.06 0 0 1 .93.55 2.15 2.15 0 0 1 .74 1.51z" id="a4c5fb21-3aa1-408e-a505-1ed6ac2e0564" data-name="Layer 5"/></g><path class="eaeeb11a-e1b7-429a-97bc-df54faf7525b" d="M63.57 306.49l12.48-12.38 12.49 12.39a.89.89 0 1 0 1.26-1.25l-13.1-13a1 1 0 0 0-.33-.21.9.9 0 0 0-1 .2l-13.1 13a.88.88 0 0 0 0 1.25.89.89 0 0 0 1.3 0z"/><path class="dd5c5457-ef77-474c-958f-edfb7778012c" d="M68.8 353.92v-11.08a.39.39 0 0 0-.36-.4.39.39 0 0 0-.37.39v11.09a2.78 2.78 0 0 0 0 5.48v3.18a.35.35 0 0 0 .37.36.35.35 0 0 0 .36-.35v-3.17a2.77 2.77 0 0 0 0-5.5zm-2.33 2.75a2 2 0 1 1 2 2 2 2 0 0 1-2-2zm10.2-10.49v-3.07c0-.2-.17-.3-.37-.3-.2 0-.37.1-.37.3v3.1a2.76 2.76 0 0 0 0 5.47v11.19a.43.43 0 0 0 .37.44.44.44 0 0 0 .37-.44v-11.16a2.8 2.8 0 0 0 0-5.53zm-.38 4.82a2 2 0 1 1 2-2 2 2 0 0 1-2 2zm8.07-.5v-7.28a.36.36 0 0 0-.36-.36.36.36 0 0 0-.37.35v7.28a2.77 2.77 0 0 0 0 5.49v6.68a.32.32 0 0 0 .36.32c.21 0 .37-.11.37-.32v-6.71a2.76 2.76 0 0 0 0-5.46zm-.36 4.72a2 2 0 1 1 2-2 2 2 0 0 1-2 2z"/><path class="dd5c5457-ef77-474c-958f-edfb7778012c" d="M92.06 342.81a6.3 6.3 0 0 0-6.26-6.34H66.31a6.3 6.3 0 0 0-6.25 6.34v19.38a6.3 6.3 0 0 0 6.25 6.34H85.8a6.3 6.3 0 0 0 6.26-6.34zm-.74 19.38a5.55 5.55 0 0 1-5.52 5.59H66.31a5.55 5.55 0 0 1-5.52-5.59v-19.38a5.55 5.55 0 0 1 5.52-5.59H85.8a5.55 5.55 0 0 1 5.52 5.59z"/><path class="eaeeb11a-e1b7-429a-97bc-df54faf7525b" d="M76.06 391.6a16 16 0 1 0 16 16 16 16 0 0 0-16-16zm0 29.25a13.26 13.26 0 1 1 13.26-13.25 13.27 13.27 0 0 1-13.26 13.25z"/><path class="eaeeb11a-e1b7-429a-97bc-df54faf7525b" d="M82.25 401.41a1.36 1.36 0 0 0-1.94 0l-4.25 4.25-4.25-4.25a1.37 1.37 0 0 0-1.94 1.93l4.25 4.26-4.25 4.25a1.36 1.36 0 0 0 0 1.94 1.35 1.35 0 0 0 1 .4 1.36 1.36 0 0 0 1-.4l4.25-4.25 4.25 4.25a1.38 1.38 0 0 0 1.94 0 1.38 1.38 0 0 0 0-1.94L78 407.6l4.25-4.25a1.38 1.38 0 0 0 0-1.94zM71.77 451.42h-2.49v-6.16h-3.67v16h3.67v-6.17h2.49v6.17h3.68v-16h-3.68zM81.61 445.26h-4.94v16h4.94a4.91 4.91 0 0 0 4.9-4.9v-6.21a4.9 4.9 0 0 0-4.9-4.89zm-1.27 3.67h1.27a1.22 1.22 0 0 1 1.22 1.22v6.21a1.22 1.22 0 0 1-1.22 1.22h-1.27zM76.67 495.55a8 8 0 1 0 8 8 8 8 0 0 0-8-8zm0 14.62a6.63 6.63 0 1 1 6.63-6.62 6.64 6.64 0 0 1-6.63 6.62z"/><path class="eaeeb11a-e1b7-429a-97bc-df54faf7525b" d="M79.77 500.45a.68.68 0 0 0-1 0l-2.13 2.13-2.13-2.13a.68.68 0 0 0-1 0 .7.7 0 0 0 0 1l2.13 2.13-2.13 2.12a.7.7 0 0 0 0 1 .67.67 0 0 0 .49.2.65.65 0 0 0 .48-.2l2.13-2.12 2.13 2.12a.65.65 0 0 0 .48.2.67.67 0 0 0 .49-.2.7.7 0 0 0 0-1l-2.13-2.12 2.13-2.13a.7.7 0 0 0 .06-1zM87.94 180.43H64.18a4.13 4.13 0 0 1 0-8.25h23.76a4.13 4.13 0 0 1 0 8.25zm-23.76-6.31a2.19 2.19 0 0 0 0 4.37h23.76a2.19 2.19 0 0 0 0-4.37zM87.94 203.21H64.18a4.12 4.12 0 1 1 0-8.24h23.76a4.12 4.12 0 0 1 0 8.24zm-23.76-6.3a2.18 2.18 0 1 0 0 4.36h23.76a2.18 2.18 0 0 0 0-4.36zM87.94 192.06H64.18a4.12 4.12 0 0 1 0-8.24h23.76a4.12 4.12 0 0 1 0 8.24zm-23.76-6.3a2.18 2.18 0 0 0 0 4.36h23.76a2.18 2.18 0 0 0 0-4.36z"/></svg>